<svg width="20" height="20" fill="none" xmlns="http://www.w3.org/2000/svg"><path d="M18.468 4.713a6.987 6.987 0 01-2.001.549A3.497 3.497 0 0018 3.333a6.965 6.965 0 01-2.213.846 3.485 3.485 0 00-5.939 3.178 9.895 9.895 0 01-7.183-3.641 3.485 3.485 0 001.078 4.653 3.473 3.473 0 01-1.578-.436v.044a3.487 3.487 0 002.796 3.417c-.514.14-1.052.16-1.575.06a3.487 3.487 0 003.256 2.421 6.993 6.993 0 01-5.16 1.443 9.857 9.857 0 005.342 1.567c6.41 0 9.917-5.31 9.917-9.917 0-.15-.004-.301-.011-.45a7.08 7.08 0 001.74-1.804h-.002z" fill="#747887"/></svg>